<svg width="94" height="34" viewBox="0 0 94 34" fill="none" xmlns="http://www.w3.org/2000/svg">
<g clip-path="url(#clip0_128_52)">
<path d="M22.3387 6.79921L22.5552 7.06417L20.9164 9.06858L17.476 13.276L11.5168 10.8467L14.9572 6.6393L18.3976 2.43147L18.5513 2.24321L21.9796 6.35947L22.3387 6.79921Z" fill="#94A580"/>
<path d="M35.9035 6.08886L35.8966 6.1273L34.8945 14.3629L24.2401 10.8443L26.2238 10.0406L23.2858 6.44506L22.9245 6.00213L21.0976 3.80727L17.921 0H28.2756L28.63 0.433234L29.7207 1.76654L33.9197 6.89748L35.8625 6.1032L35.9035 6.08886Z" fill="#7FA661"/>
<path d="M37.6033 22.2104L37.1701 22.2104L35.5312 20.206L32.091 15.9985L38.05 13.569L41.4902 17.7766L44.9308 21.9843L45.085 22.1724L38.3222 22.2107L37.6033 22.2104Z" fill="#94A580"/>
<path d="M31.6891 29.2429L42.2646 29.2426L42.9736 29.2429L48.1515 22.9103L38.289 22.9662L37.565 22.9659L31.6885 22.9658L31.6888 21.3496L22.0497 26.1044L31.6895 30.8594L31.6891 29.2429Z" fill="#7FA661"/>
<path d="M11.3118 24.251L11.5285 23.9861L14.8063 23.9861L21.6868 23.9862L21.687 28.8449L14.8064 28.8448L7.92543 28.8449L7.61761 28.8451L10.952 24.6904L11.3118 24.251Z" fill="#94A580"/>
<path d="M15.3239 21.0629L13.3402 20.2543L10.4022 23.8498L10.041 24.2926L5.59648 29.8375L5.18071 30.3526L3.61287 28.4369L2.28362 26.8149L0 24.0183L0.354459 23.5851L5.64426 17.1161L3.66055 16.3123L13.5379 13.0488L14.315 12.7938L15.3239 21.0629Z" fill="#7FA661"/>
</g>
<path d="M55.0597 11.3871L55.6634 7.81818H71.0309L70.4272 11.3871H64.9141L62.4993 26H58.1669L60.5817 11.3871H55.0597ZM70.1586 26L73.1771 7.81818H80.6878C82.049 7.81818 83.1854 8.0638 84.0969 8.55504C85.0083 9.04036 85.6564 9.73875 86.0411 10.6502C86.4258 11.5558 86.5146 12.63 86.3074 13.8729C86.1062 15.1276 85.6564 16.1959 84.958 17.0778C84.2655 17.9537 83.3718 18.6225 82.2769 19.0842C81.1879 19.5458 79.9509 19.7766 78.566 19.7766H73.8163L74.4023 16.3143H78.3351C78.9921 16.3143 79.5603 16.2285 80.0397 16.0568C80.5191 15.8793 80.9008 15.6129 81.1849 15.2578C81.4749 14.8968 81.6673 14.4351 81.762 13.8729C81.8508 13.3106 81.8093 12.846 81.6377 12.479C81.472 12.1062 81.179 11.828 80.7588 11.6445C80.3445 11.4551 79.8118 11.3604 79.1608 11.3604H76.9946L74.5532 26H70.1586ZM81.7709 17.6903L84.9225 26H80.1285L77.0745 17.6903H81.7709Z" fill="url(#paint0_diamond_128_52)"/>
<defs>
<radialGradient id="paint0_diamond_128_52" cx="0" cy="0" r="1" gradientUnits="userSpaceOnUse" gradientTransform="translate(73.5 19.5) rotate(-90) scale(24.5 34.6379)">
<stop stop-color="#48CC27"/>
<stop offset="1"/>
</radialGradient>
<clipPath id="clip0_128_52">
<rect width="48.1515" height="34" fill="white"/>
</clipPath>
</defs>
</svg>
