<svg width="227" height="34" viewBox="0 0 227 34" fill="none" xmlns="http://www.w3.org/2000/svg">
<g clip-path="url(#clip0_128_52)">
<path d="M22.3387 6.79921L22.5552 7.06417L20.9164 9.06858L17.476 13.276L11.5168 10.8467L14.9572 6.6393L18.3976 2.43147L18.5513 2.24321L21.9796 6.35947L22.3387 6.79921Z" fill="#94A580"/>
<path d="M35.9035 6.08886L35.8966 6.1273L34.8945 14.3629L24.2401 10.8443L26.2238 10.0406L23.2858 6.44506L22.9245 6.00213L21.0976 3.80727L17.921 0H28.2756L28.63 0.433234L29.7207 1.76654L33.9197 6.89748L35.8625 6.1032L35.9035 6.08886Z" fill="#7FA661"/>
<path d="M37.6033 22.2104L37.1701 22.2104L35.5312 20.206L32.091 15.9985L38.05 13.569L41.4902 17.7766L44.9308 21.9843L45.085 22.1724L38.3222 22.2107L37.6033 22.2104Z" fill="#94A580"/>
<path d="M31.6891 29.2429L42.2646 29.2426L42.9736 29.2429L48.1515 22.9103L38.289 22.9662L37.565 22.9659L31.6885 22.9658L31.6888 21.3496L22.0497 26.1044L31.6895 30.8594L31.6891 29.2429Z" fill="#7FA661"/>
<path d="M11.3118 24.251L11.5285 23.9861L14.8063 23.9861L21.6868 23.9862L21.687 28.8449L14.8064 28.8448L7.92543 28.8449L7.61761 28.8451L10.952 24.6904L11.3118 24.251Z" fill="#94A580"/>
<path d="M15.3239 21.0629L13.3402 20.2543L10.4022 23.8498L10.041 24.2926L5.59648 29.8375L5.18071 30.3526L3.61287 28.4369L2.28362 26.8149L0 24.0183L0.354459 23.5851L5.64426 17.1161L3.66055 16.3123L13.5379 13.0488L14.315 12.7938L15.3239 21.0629Z" fill="#7FA661"/>
</g>
<path d="M55.0265 11.3871L55.6302 7.81818H70.9977L70.394 11.3871H64.8809L62.4661 26H58.1337L60.5485 11.3871H55.0265ZM68.7095 26L70.9822 12.3636H75.1992L74.7819 14.8494H74.9239C75.3205 13.9498 75.8384 13.281 76.4776 12.843C77.1168 12.3991 77.8092 12.1772 78.555 12.1772C78.7562 12.1772 78.9574 12.192 79.1587 12.2216C79.3658 12.2453 79.5611 12.2808 79.7446 12.3281L79.1054 16.1101C78.9042 16.0331 78.6408 15.9769 78.3153 15.9414C77.9898 15.9 77.6938 15.8793 77.4275 15.8793C76.9126 15.8793 76.4332 15.9947 75.9893 16.2255C75.5513 16.4504 75.1784 16.767 74.8707 17.1754C74.5688 17.5779 74.3706 18.0514 74.2759 18.5959L73.0507 26H68.7095ZM82.5278 26.2308C81.6637 26.2308 80.918 26.0858 80.2906 25.7958C79.6691 25.4999 79.2134 25.053 78.9234 24.4553C78.6393 23.8575 78.5713 23.1117 78.7192 22.218C78.8494 21.4605 79.0891 20.8242 79.4383 20.3093C79.7934 19.7885 80.2284 19.3653 80.7434 19.0398C81.2642 18.7143 81.8442 18.4657 82.4834 18.294C83.1226 18.1224 83.7914 18.007 84.4898 17.9478C85.2711 17.8768 85.9043 17.7998 86.3897 17.717C86.8809 17.6341 87.2479 17.5187 87.4905 17.3707C87.7332 17.2169 87.8811 17.0038 87.9344 16.7315V16.6871C88.0054 16.2314 87.9078 15.8793 87.6414 15.6307C87.3751 15.3821 86.9756 15.2578 86.4429 15.2578C85.8748 15.2578 85.3894 15.3821 84.987 15.6307C84.5845 15.8793 84.3034 16.2225 84.1436 16.6605L80.1663 16.5185C80.4149 15.6899 80.841 14.95 81.4447 14.299C82.0484 13.642 82.8149 13.1271 83.7441 12.7543C84.6792 12.3755 85.7593 12.1861 86.9845 12.1861C87.8486 12.1861 88.6298 12.2897 89.3282 12.4968C90.0266 12.698 90.6155 12.994 91.0949 13.3846C91.5802 13.7693 91.9265 14.2428 92.1336 14.805C92.3408 15.3673 92.3852 16.0095 92.2668 16.7315L90.7132 26H86.6294L86.949 24.1001H86.8424C86.5228 24.5618 86.147 24.9524 85.715 25.272C85.2888 25.5916 84.8094 25.8313 84.2767 25.9911C83.7441 26.1509 83.1611 26.2308 82.5278 26.2308ZM84.3566 23.3899C84.8124 23.3899 85.2444 23.2952 85.6528 23.1058C86.0612 22.9164 86.4045 22.656 86.6826 22.3246C86.9667 21.9872 87.1472 21.5966 87.2242 21.1527L87.4284 19.8565C87.3041 19.9216 87.1472 19.9808 86.9579 20.0341C86.7685 20.0874 86.5672 20.1377 86.3542 20.185C86.1411 20.2264 85.9221 20.2679 85.6972 20.3093C85.4782 20.3448 85.2681 20.3774 85.0669 20.407C84.6407 20.4721 84.2708 20.5727 83.9571 20.7088C83.6435 20.8449 83.3919 21.0225 83.2025 21.2415C83.0191 21.4545 82.9066 21.709 82.8652 22.005C82.7941 22.4489 82.8977 22.7921 83.1759 23.0348C83.4541 23.2715 83.8476 23.3899 84.3566 23.3899ZM106.818 16.5273L102.902 16.6339C102.908 16.3439 102.843 16.0894 102.707 15.8704C102.571 15.6455 102.379 15.4709 102.13 15.3466C101.882 15.2223 101.586 15.1602 101.242 15.1602C100.686 15.1602 100.186 15.2844 99.7419 15.533C99.304 15.7816 99.0584 16.1042 99.0051 16.5007C98.9637 16.7138 99.0228 16.9002 99.1826 17.06C99.3424 17.2139 99.6976 17.35 100.248 17.4684L102.805 17.9656C104.119 18.226 105.072 18.6787 105.663 19.3239C106.261 19.9631 106.474 20.8094 106.303 21.8629C106.149 22.7625 105.752 23.5408 105.113 24.1978C104.48 24.8548 103.672 25.3638 102.689 25.7248C101.713 26.0799 100.633 26.2575 99.449 26.2575C97.4485 26.2575 95.9393 25.855 94.9213 25.0501C93.9092 24.2392 93.4357 23.165 93.5008 21.8274L97.7267 21.7209C97.7444 22.224 97.9131 22.6027 98.2327 22.8572C98.5582 23.1058 98.9992 23.236 99.5555 23.2479C100.165 23.2597 100.692 23.1325 101.136 22.8661C101.58 22.5998 101.828 22.2713 101.882 21.8807C101.917 21.6262 101.831 21.4279 101.624 21.2859C101.423 21.1438 101.047 21.0166 100.497 20.9041L98.1883 20.4513C96.8626 20.1969 95.9038 19.7174 95.3119 19.0131C94.726 18.3029 94.5247 17.3974 94.7082 16.2965C94.8621 15.4206 95.2231 14.6778 95.7913 14.0682C96.3654 13.4527 97.1141 12.9851 98.0374 12.6655C98.9666 12.3459 100.026 12.1861 101.216 12.1861C103.121 12.1861 104.56 12.5737 105.53 13.3491C106.507 14.1185 106.936 15.1779 106.818 16.5273ZM113.412 18.223L112.115 26H107.774L110.793 7.81818H114.992L113.838 14.8672H113.989C114.427 14.0268 115.036 13.3698 115.817 12.8963C116.599 12.4228 117.504 12.1861 118.534 12.1861C119.481 12.1861 120.274 12.3991 120.913 12.8253C121.553 13.2455 122.005 13.8403 122.272 14.6097C122.538 15.3791 122.585 16.2788 122.414 17.3086L120.958 26H116.617L117.93 18.1609C118.049 17.4033 117.951 16.8114 117.637 16.3853C117.324 15.9592 116.821 15.7461 116.128 15.7461C115.672 15.7461 115.252 15.8467 114.868 16.0479C114.489 16.2433 114.172 16.5244 113.918 16.8913C113.663 17.2583 113.494 17.7022 113.412 18.223ZM129.012 26L132.031 7.81818H139.541C140.903 7.81818 142.039 8.0638 142.95 8.55504C143.862 9.04036 144.51 9.73875 144.895 10.6502C145.279 11.5558 145.368 12.63 145.161 13.8729C144.96 15.1276 144.51 16.1959 143.812 17.0778C143.119 17.9537 142.225 18.6225 141.13 19.0842C140.041 19.5458 138.804 19.7766 137.42 19.7766H132.67L133.256 16.3143H137.189C137.846 16.3143 138.414 16.2285 138.893 16.0568C139.373 15.8793 139.754 15.6129 140.038 15.2578C140.328 14.8968 140.521 14.4351 140.616 13.8729C140.704 13.3106 140.663 12.846 140.491 12.479C140.326 12.1062 140.033 11.828 139.612 11.6445C139.198 11.4551 138.665 11.3604 138.014 11.3604H135.848L133.407 26H129.012ZM140.624 17.6903L143.776 26H138.982L135.928 17.6903H140.624ZM151.83 26.2575C150.404 26.2575 149.22 25.9763 148.279 25.4141C147.344 24.8459 146.687 24.038 146.308 22.9904C145.93 21.9369 145.862 20.6851 146.104 19.2351C146.341 17.8265 146.823 16.5954 147.551 15.5419C148.285 14.4825 149.209 13.6598 150.321 13.0739C151.434 12.482 152.674 12.1861 154.041 12.1861C155.012 12.1861 155.873 12.337 156.624 12.6388C157.376 12.9407 157.998 13.3905 158.489 13.9883C158.98 14.5801 159.314 15.3081 159.492 16.1722C159.67 17.0363 159.664 18.0277 159.474 19.1463L159.306 20.2294H147.463L147.862 17.7081H155.675C155.746 17.2464 155.707 16.8351 155.559 16.4741C155.411 16.113 155.171 15.8319 154.84 15.6307C154.515 15.4235 154.115 15.32 153.642 15.32C153.162 15.32 152.712 15.4324 152.292 15.6573C151.878 15.8763 151.526 16.1722 151.236 16.5451C150.946 16.918 150.756 17.3382 150.667 17.8058L150.197 20.3892C150.102 20.9633 150.129 21.4545 150.277 21.8629C150.425 22.2713 150.679 22.585 151.04 22.804C151.401 23.017 151.866 23.1236 152.434 23.1236C152.813 23.1236 153.168 23.0733 153.499 22.9727C153.831 22.8661 154.127 22.7093 154.387 22.5021C154.654 22.2891 154.87 22.0316 155.035 21.7298L158.995 21.8452C158.675 22.7389 158.181 23.5172 157.512 24.18C156.843 24.837 156.027 25.349 155.062 25.7159C154.103 26.0769 153.026 26.2575 151.83 26.2575ZM166.885 26.2575C165.447 26.2575 164.26 25.9615 163.325 25.3697C162.396 24.7778 161.745 23.9551 161.372 22.9016C160.999 21.8422 160.931 20.6171 161.168 19.2262C161.393 17.8294 161.869 16.6043 162.597 15.5508C163.325 14.4914 164.254 13.6657 165.385 13.0739C166.515 12.482 167.794 12.1861 169.22 12.1861C170.481 12.1861 171.54 12.4139 172.398 12.8697C173.262 13.3254 173.887 13.9705 174.271 14.805C174.662 15.6336 174.777 16.6072 174.618 17.7259H170.56C170.596 17.0334 170.454 16.4889 170.134 16.0923C169.815 15.6899 169.35 15.4886 168.741 15.4886C168.226 15.4886 167.752 15.6307 167.32 15.9148C166.894 16.1929 166.53 16.6072 166.228 17.1577C165.932 17.7022 165.719 18.3769 165.589 19.1818C165.459 19.9867 165.45 20.6674 165.562 21.2237C165.681 21.7741 165.903 22.1914 166.228 22.4755C166.56 22.7537 166.98 22.8928 167.489 22.8928C167.891 22.8928 168.264 22.8069 168.607 22.6353C168.951 22.4637 169.25 22.2121 169.504 21.8807C169.759 21.5433 169.957 21.1349 170.099 20.6555H174.147C173.916 21.786 173.469 22.7714 172.807 23.6119C172.15 24.4464 171.318 25.0974 170.312 25.565C169.306 26.0266 168.163 26.2575 166.885 26.2575ZM177.292 31.1136C176.771 31.1136 176.286 31.0722 175.836 30.9893C175.392 30.9124 175.013 30.8088 174.7 30.6786L176.191 27.527C176.588 27.669 176.952 27.7489 177.283 27.7667C177.621 27.7904 177.922 27.7341 178.189 27.598C178.461 27.4678 178.698 27.234 178.899 26.8967L179.148 26.4794L176.653 12.3636H181.039L181.926 22.1026H182.068L186.241 12.3636H190.973L183.365 27.305C182.98 28.0508 182.515 28.7107 181.971 29.2848C181.426 29.8589 180.769 30.3058 180 30.6254C179.236 30.9509 178.334 31.1136 177.292 31.1136ZM196.255 26.2575C194.817 26.2575 193.63 25.9615 192.695 25.3697C191.766 24.7778 191.115 23.9551 190.742 22.9016C190.369 21.8422 190.301 20.6171 190.538 19.2262C190.763 17.8294 191.239 16.6043 191.967 15.5508C192.695 14.4914 193.624 13.6657 194.755 13.0739C195.885 12.482 197.164 12.1861 198.59 12.1861C199.851 12.1861 200.91 12.4139 201.768 12.8697C202.632 13.3254 203.257 13.9705 203.642 14.805C204.032 15.6336 204.148 16.6072 203.988 17.7259H199.931C199.966 17.0334 199.824 16.4889 199.504 16.0923C199.185 15.6899 198.72 15.4886 198.111 15.4886C197.596 15.4886 197.122 15.6307 196.69 15.9148C196.264 16.1929 195.9 16.6072 195.598 17.1577C195.302 17.7022 195.089 18.3769 194.959 19.1818C194.829 19.9867 194.82 20.6674 194.932 21.2237C195.051 21.7741 195.273 22.1914 195.598 22.4755C195.93 22.7537 196.35 22.8928 196.859 22.8928C197.261 22.8928 197.634 22.8069 197.977 22.6353C198.321 22.4637 198.62 22.2121 198.874 21.8807C199.129 21.5433 199.327 21.1349 199.469 20.6555H203.517C203.286 21.786 202.84 22.7714 202.177 23.6119C201.52 24.4464 200.688 25.0974 199.682 25.565C198.676 26.0266 197.534 26.2575 196.255 26.2575ZM212.202 7.81818L209.184 26H204.842L207.861 7.81818H212.202ZM218.286 26.2575C216.859 26.2575 215.675 25.9763 214.734 25.4141C213.799 24.8459 213.142 24.038 212.764 22.9904C212.385 21.9369 212.317 20.6851 212.559 19.2351C212.796 17.8265 213.278 16.5954 214.006 15.5419C214.74 14.4825 215.664 13.6598 216.776 13.0739C217.889 12.482 219.129 12.1861 220.496 12.1861C221.467 12.1861 222.328 12.337 223.08 12.6388C223.831 12.9407 224.453 13.3905 224.944 13.9883C225.435 14.5801 225.77 15.3081 225.947 16.1722C226.125 17.0363 226.119 18.0277 225.929 19.1463L225.761 20.2294H213.918L214.317 17.7081H222.13C222.201 17.2464 222.162 16.8351 222.014 16.4741C221.866 16.113 221.627 15.8319 221.295 15.6307C220.97 15.4235 220.57 15.32 220.097 15.32C219.617 15.32 219.167 15.4324 218.747 15.6573C218.333 15.8763 217.981 16.1722 217.691 16.5451C217.401 16.918 217.211 17.3382 217.123 17.8058L216.652 20.3892C216.557 20.9633 216.584 21.4545 216.732 21.8629C216.88 22.2713 217.134 22.585 217.495 22.804C217.856 23.017 218.321 23.1236 218.889 23.1236C219.268 23.1236 219.623 23.0733 219.955 22.9727C220.286 22.8661 220.582 22.7093 220.842 22.5021C221.109 22.2891 221.325 22.0316 221.49 21.7298L225.45 21.8452C225.13 22.7389 224.636 23.5172 223.967 24.18C223.299 24.837 222.482 25.349 221.517 25.7159C220.558 26.0769 219.481 26.2575 218.286 26.2575Z" fill="url(#paint0_diamond_128_52)"/>
<defs>
<radialGradient id="paint0_diamond_128_52" cx="0" cy="0" r="1" gradientUnits="userSpaceOnUse" gradientTransform="translate(139.869 19.5) rotate(-90) scale(24.5 147.222)">
<stop stop-color="#48CC27"/>
<stop offset="1"/>
</radialGradient>
<clipPath id="clip0_128_52">
<rect width="48.1515" height="34" fill="white"/>
</clipPath>
</defs>
</svg>
