<svg width="198" height="34" viewBox="0 0 198 34" fill="none" xmlns="http://www.w3.org/2000/svg">
<path d="M19.4849 6.79921L19.6737 7.06417L18.2442 9.06858L15.2434 13.276L10.0455 10.8467L13.0464 6.6393L16.0473 2.43147L16.1813 2.24321L19.1717 6.35947L19.4849 6.79921Z" fill="#94A580"/>
<path d="M31.3166 6.08886L31.3107 6.1273L30.4366 14.3629L21.1433 10.8443L22.8736 10.0406L20.3109 6.44506L19.9958 6.00213L18.4023 3.80727L15.6315 0H24.6633L24.9724 0.433234L25.9237 1.76654L29.5864 6.89748L31.281 6.1032L31.3166 6.08886Z" fill="#7FA661"/>
<path d="M32.7994 22.2104L32.4215 22.2104L30.992 20.206L27.9913 15.9985L33.189 13.569L36.1897 17.7766L39.1908 21.9843L39.3252 22.1724L33.4264 22.2107L32.7994 22.2104Z" fill="#94A580"/>
<path d="M27.6407 29.2429L36.8652 29.2426L37.4836 29.2429L42 22.9103L33.3975 22.9662L32.7659 22.9659L27.6402 22.9658L27.6404 21.3496L19.2328 26.1044L27.6411 30.8594L27.6407 29.2429Z" fill="#7FA661"/>
<path d="M9.86674 24.251L10.0557 23.9861L12.9148 23.9861L18.9163 23.9862L18.9164 28.8449L12.9149 28.8448L6.91296 28.8449L6.64447 28.8451L9.55289 24.6904L9.86674 24.251Z" fill="#94A580"/>
<path d="M13.3663 21.0629L11.636 20.2543L9.07331 23.8498L8.75823 24.2926L4.88152 29.8375L4.51886 30.3526L3.15131 28.4369L1.99188 26.8149L0 24.0183L0.309176 23.5851L4.92319 17.1161L3.1929 16.3123L11.8084 13.0488L12.4862 12.7938L13.3663 21.0629Z" fill="#7FA661"/>
<path d="M68.3379 14.4055H63.9522C63.9759 13.9439 63.9315 13.5326 63.8191 13.1715C63.7066 12.8046 63.5291 12.4909 63.2864 12.2305C63.0437 11.9641 62.7419 11.7629 62.3809 11.6268C62.0198 11.4906 61.5996 11.4226 61.1202 11.4226C60.2028 11.4226 59.3713 11.6504 58.6255 12.1062C57.8798 12.5619 57.2554 13.2189 56.7523 14.0771C56.2492 14.9353 55.8971 15.9651 55.6958 17.1665C55.5124 18.3266 55.5153 19.2943 55.7047 20.0696C55.9 20.8449 56.2611 21.4279 56.7878 21.8185C57.3146 22.2032 57.9834 22.3956 58.7942 22.3956C59.321 22.3956 59.8092 22.3335 60.2591 22.2092C60.7148 22.079 61.1261 21.8925 61.4931 21.6499C61.86 21.4072 62.1767 21.1142 62.443 20.771C62.7153 20.4218 62.9254 20.0341 63.0733 19.608H67.4945C67.2755 20.407 66.9145 21.203 66.4114 21.9961C65.9142 22.7833 65.2869 23.4964 64.5293 24.1357C63.7717 24.7749 62.8928 25.2868 61.8926 25.6715C60.8923 26.0562 59.7797 26.2486 58.5545 26.2486C56.8796 26.2486 55.4354 25.8728 54.2221 25.1211C53.0147 24.3694 52.1417 23.2804 51.6032 21.854C51.0705 20.4218 50.9699 18.6876 51.3013 16.6516C51.6268 14.6808 52.269 13.0206 53.2278 11.6712C54.1925 10.3217 55.3644 9.30078 56.7434 8.60831C58.1284 7.91584 59.6051 7.5696 61.1735 7.5696C62.3098 7.5696 63.3308 7.72348 64.2363 8.03125C65.1478 8.3331 65.9202 8.77699 66.5534 9.36293C67.1867 9.94294 67.6573 10.6561 67.965 11.5025C68.2787 12.3488 68.403 13.3165 68.3379 14.4055ZM76.3035 7.81818L73.2851 26H68.9438L71.9623 7.81818H76.3035ZM82.3871 26.2575C80.9607 26.2575 79.777 25.9763 78.8359 25.4141C77.9008 24.8459 77.2438 24.038 76.8651 22.9904C76.4863 21.9369 76.4182 20.6851 76.6609 19.2351C76.8976 17.8265 77.38 16.5954 78.108 15.5419C78.8419 14.4825 79.7652 13.6598 80.8778 13.0739C81.9905 12.482 83.2305 12.1861 84.5977 12.1861C85.5683 12.1861 86.4295 12.337 87.1811 12.6388C87.9328 12.9407 88.5542 13.3905 89.0455 13.9883C89.5367 14.5801 89.8711 15.3081 90.0487 16.1722C90.2262 17.0363 90.2203 18.0277 90.0309 19.1463L89.8622 20.2294H78.0192L78.4187 17.7081H86.2312C86.3022 17.2464 86.2637 16.8351 86.1158 16.4741C85.9678 16.113 85.7281 15.8319 85.3967 15.6307C85.0711 15.4235 84.6716 15.32 84.1982 15.32C83.7188 15.32 83.2689 15.4324 82.8487 15.6573C82.4344 15.8763 82.0823 16.1722 81.7923 16.5451C81.5022 16.918 81.3129 17.3382 81.2241 17.8058L80.7536 20.3892C80.6589 20.9633 80.6855 21.4545 80.8335 21.8629C80.9814 22.2713 81.2359 22.585 81.5969 22.804C81.958 23.017 82.4226 23.1236 82.9908 23.1236C83.3696 23.1236 83.7247 23.0733 84.0561 22.9727C84.3875 22.8661 84.6835 22.7093 84.9439 22.5021C85.2102 22.2891 85.4263 22.0316 85.592 21.7298L89.5515 21.8452C89.2319 22.7389 88.7377 23.5172 88.0689 24.18C87.4001 24.837 86.5833 25.349 85.6186 25.7159C84.6598 26.0769 83.5826 26.2575 82.3871 26.2575ZM94.9204 26.2308C94.0563 26.2308 93.3105 26.0858 92.6831 25.7958C92.0617 25.4999 91.606 25.053 91.316 24.4553C91.0319 23.8575 90.9638 23.1117 91.1118 22.218C91.242 21.4605 91.4817 20.8242 91.8309 20.3093C92.186 19.7885 92.621 19.3653 93.1359 19.0398C93.6568 18.7143 94.2368 18.4657 94.876 18.294C95.5152 18.1224 96.184 18.007 96.8824 17.9478C97.6636 17.8768 98.2969 17.7998 98.7822 17.717C99.2735 17.6341 99.6404 17.5187 99.8831 17.3707C100.126 17.2169 100.274 17.0038 100.327 16.7315V16.6871C100.398 16.2314 100.3 15.8793 100.034 15.6307C99.7677 15.3821 99.3682 15.2578 98.8355 15.2578C98.2673 15.2578 97.782 15.3821 97.3795 15.6307C96.9771 15.8793 96.6959 16.2225 96.5361 16.6605L92.5589 16.5185C92.8074 15.6899 93.2336 14.95 93.8373 14.299C94.441 13.642 95.2074 13.1271 96.1366 12.7543C97.0718 12.3755 98.1519 12.1861 99.377 12.1861C100.241 12.1861 101.022 12.2897 101.721 12.4968C102.419 12.698 103.008 12.994 103.487 13.3846C103.973 13.7693 104.319 14.2428 104.526 14.805C104.733 15.3673 104.778 16.0095 104.659 16.7315L103.106 26H99.0219L99.3415 24.1001H99.235C98.9154 24.5618 98.5396 24.9524 98.1075 25.272C97.6814 25.5916 97.202 25.8313 96.6693 25.9911C96.1366 26.1509 95.5537 26.2308 94.9204 26.2308ZM96.7492 23.3899C97.2049 23.3899 97.637 23.2952 98.0454 23.1058C98.4537 22.9164 98.797 22.656 99.0752 22.3246C99.3593 21.9872 99.5398 21.5966 99.6167 21.1527L99.8209 19.8565C99.6966 19.9216 99.5398 19.9808 99.3504 20.0341C99.161 20.0874 98.9598 20.1377 98.7467 20.185C98.5336 20.2264 98.3147 20.2679 98.0898 20.3093C97.8708 20.3448 97.6607 20.3774 97.4594 20.407C97.0333 20.4721 96.6634 20.5727 96.3497 20.7088C96.036 20.8449 95.7845 21.0225 95.5951 21.2415C95.4116 21.4545 95.2992 21.709 95.2577 22.005C95.1867 22.4489 95.2903 22.7921 95.5684 23.0348C95.8466 23.2715 96.2402 23.3899 96.7492 23.3899ZM111.424 18.223L110.128 26H105.787L108.06 12.3636H112.188L111.779 14.8672H111.93C112.356 14.0327 112.975 13.3787 113.786 12.9052C114.597 12.4258 115.508 12.1861 116.52 12.1861C117.473 12.1861 118.269 12.3991 118.908 12.8253C119.547 13.2514 120 13.8492 120.267 14.6186C120.533 15.3821 120.577 16.2788 120.4 17.3086L118.944 26H114.603L115.908 18.1609C116.038 17.4092 115.946 16.8203 115.632 16.3942C115.325 15.9621 114.822 15.7461 114.123 15.7461C113.667 15.7461 113.25 15.8467 112.871 16.0479C112.498 16.2433 112.185 16.5244 111.93 16.8913C111.682 17.2583 111.513 17.7022 111.424 18.223ZM124.694 26L122.422 7.81818H127.278L128.059 19.7322H128.21L133.306 7.81818H137.265L138.437 19.7589H138.579L143.302 7.81818H148.15L139.849 26H135.614L134.185 14.9737H134.043L128.92 26H124.694ZM151.79 26.2575C150.351 26.2575 149.165 25.9615 148.23 25.3697C147.3 24.7778 146.646 23.9522 146.268 22.8928C145.889 21.8333 145.815 20.6023 146.046 19.1996C146.276 17.8028 146.753 16.5777 147.475 15.5241C148.197 14.4706 149.12 13.6509 150.245 13.065C151.369 12.479 152.645 12.1861 154.071 12.1861C155.503 12.1861 156.684 12.482 157.613 13.0739C158.549 13.6657 159.206 14.4914 159.584 15.5508C159.969 16.6102 160.046 17.8442 159.815 19.2528C159.584 20.6496 159.105 21.8748 158.377 22.9283C157.649 23.9759 156.726 24.7926 155.607 25.3786C154.488 25.9645 153.216 26.2575 151.79 26.2575ZM152.278 22.9815C152.811 22.9815 153.287 22.8217 153.707 22.5021C154.133 22.1825 154.491 21.7357 154.781 21.1616C155.071 20.5875 155.279 19.9216 155.403 19.1641C155.527 18.4183 155.539 17.7643 155.438 17.2021C155.344 16.6339 155.142 16.1929 154.835 15.8793C154.527 15.5597 154.11 15.3999 153.583 15.3999C153.05 15.3999 152.571 15.5626 152.145 15.8881C151.719 16.2077 151.36 16.6546 151.07 17.2287C150.786 17.7969 150.582 18.4627 150.458 19.2262C150.334 19.9719 150.319 20.6259 150.414 21.1882C150.508 21.7505 150.712 22.1914 151.026 22.511C151.34 22.8247 151.757 22.9815 152.278 22.9815ZM160.912 26L163.184 12.3636H167.401L166.984 14.8494H167.126C167.523 13.9498 168.04 13.281 168.68 12.843C169.319 12.3991 170.011 12.1772 170.757 12.1772C170.958 12.1772 171.16 12.192 171.361 12.2216C171.568 12.2453 171.763 12.2808 171.947 12.3281L171.308 16.1101C171.106 16.0331 170.843 15.9769 170.517 15.9414C170.192 15.9 169.896 15.8793 169.63 15.8793C169.115 15.8793 168.635 15.9947 168.191 16.2255C167.753 16.4504 167.381 16.767 167.073 17.1754C166.771 17.5779 166.573 18.0514 166.478 18.5959L165.253 26H160.912ZM178.794 7.81818L175.775 26H171.434L174.453 7.81818H178.794ZM183.501 26.1953C182.495 26.1953 181.622 25.9349 180.882 25.4141C180.142 24.8932 179.613 24.112 179.293 23.0703C178.979 22.0286 178.95 20.7354 179.204 19.1907C179.471 17.5868 179.944 16.2669 180.625 15.2312C181.305 14.1954 182.099 13.429 183.004 12.9318C183.916 12.4347 184.845 12.1861 185.792 12.1861C186.508 12.1861 187.1 12.3104 187.567 12.5589C188.041 12.8016 188.411 13.1153 188.677 13.5C188.943 13.8847 189.127 14.2842 189.227 14.6985H189.325L190.47 7.81818H194.812L191.793 26H187.496L187.86 23.7894H187.727C187.473 24.2096 187.147 24.6032 186.751 24.9702C186.354 25.3371 185.883 25.633 185.339 25.858C184.8 26.0829 184.188 26.1953 183.501 26.1953ZM185.552 22.8129C186.079 22.8129 186.555 22.6649 186.981 22.369C187.407 22.0671 187.766 21.6439 188.056 21.0994C188.352 20.5549 188.559 19.9157 188.677 19.1818C188.801 18.4361 188.807 17.7939 188.695 17.2553C188.582 16.7167 188.36 16.3024 188.029 16.0124C187.703 15.7224 187.274 15.5774 186.742 15.5774C186.209 15.5774 185.733 15.7254 185.312 16.0213C184.892 16.3172 184.543 16.7345 184.265 17.2731C183.987 17.8117 183.785 18.4479 183.661 19.1818C183.543 19.9157 183.531 20.5549 183.626 21.0994C183.726 21.6439 183.936 22.0671 184.256 22.369C184.581 22.6649 185.013 22.8129 185.552 22.8129Z" fill="#040404"/>
</svg>
